<?xml version="1.0" standalone="no"?>
<!DOCTYPE svg PUBLIC "-//W3C//DTD SVG 20010904//EN"
 "http://www.w3.org/TR/2001/REC-SVG-20010904/DTD/svg10.dtd">
<svg version="1.0" xmlns="http://www.w3.org/2000/svg"
 width="672pt" height="666pt" viewBox="0 0 800 666"
 preserveAspectRatio="xMidYMid meet">

<g transform="translate(0.000000,666.000000) scale(0.100000,-0.10000)"
fill="#FFF6E9" stroke="none">
<path d="M3185 6184 c-225 -13 -542 -76 -750 -147 -645 -222 -1186 -657 -1538
-1239 -67 -110 -159 -286 -182 -348 -7 -19 -34 -90 -59 -158 -145 -384 -203
-832 -161 -1242 56 -544 220 -981 538 -1429 208 -292 524 -580 852 -777 303
-181 682 -318 1035 -373 297 -46 729 -37 1000 23 291 63 491 133 726 252 271
137 446 259 669 464 437 402 746 953 859 1535 46 233 51 291 51 565 0 263 -8
361 -42 530 -9 41 -18 86 -20 100 -10 51 -55 208 -88 308 -173 523 -540 1024
-1000 1368 -485 363 -1044 555 -1655 568 -96 2 -202 2 -235 0z m480 -69 c424
-50 792 -175 1155 -393 670 -403 1159 -1107 1303 -1872 40 -212 50 -320 49
-540 0 -342 -41 -590 -149 -909 -154 -455 -446 -893 -803 -1201 -35 -30 -68
-59 -74 -65 -59 -55 -231 -175 -347 -243 -281 -166 -539 -266 -881 -341 -335
-74 -803 -72 -1152 5 -121 27 -312 83 -391 114 -246 98 -426 192 -610 318
-373 256 -703 629 -910 1027 -119 230 -237 578 -274 808 -6 37 -17 97 -23 135
-18 95 -17 590 0 707 13 81 41 234 62 325 50 223 188 555 324 780 243 401 584
736 998 981 95 56 247 130 368 179 30 12 64 26 75 30 56 23 263 83 375 109
245 57 638 77 905 46z"/>
<path d="M2930 5040 c-13 -8 -15 -45 -15 -237 l0 -228 108 -3 c73 -2 109 -7
113 -15 2 -7 5 -367 7 -802 l2 -790 203 -3 202 -2 -2 1042 -3 1043 -300 2
c-178 2 -306 -1 -315 -7z"/>
<path d="M3250 2879 c-284 -45 -470 -205 -541 -466 -36 -132 -30 -353 13 -478
70 -206 246 -361 465 -409 94 -21 263 -21 355 0 248 57 426 234 482 481 23
104 21 295 -4 398 -32 128 -73 199 -165 291 -108 108 -194 151 -360 180 -89
15 -162 16 -245 3z m215 -306 c68 -23 136 -92 165 -169 17 -43 24 -88 28 -167
10 -216 -46 -346 -176 -407 -59 -28 -182 -31 -234 -4 -130 65 -177 166 -178
380 0 205 62 321 197 370 52 18 140 17 198 -3z"/>
</g>
</svg>
